<?xml version="1.0" standalone="no"?>
<!DOCTYPE svg PUBLIC "-//W3C//DTD SVG 20010904//EN"
 "http://www.w3.org/TR/2001/REC-SVG-20010904/DTD/svg10.dtd">
<svg version="1.0" xmlns="http://www.w3.org/2000/svg"
 width="797.000000pt" height="517.000000pt" viewBox="0 0 797.000000 517.000000"
 preserveAspectRatio="xMidYMid meet">

<g transform="translate(0.000000,517.000000) scale(0.100000,-0.100000)"
fill="#000000" stroke="none">
<path d="M1500 3906 l0 -313 73 -6 c78 -6 133 -25 158 -54 44 -50 44 -45 50
-603 5 -512 6 -539 27 -615 82 -297 268 -483 582 -583 146 -46 264 -63 480
-69 202 -5 339 6 489 43 86 20 271 110 342 165 119 93 225 246 262 379 47 167
50 203 55 731 4 478 5 509 23 539 23 38 69 58 149 67 l60 6 0 313 0 314 -555
0 -555 0 0 -314 0 -313 62 -7 c69 -7 111 -27 142 -69 21 -28 21 -39 24 -484 2
-397 0 -463 -14 -512 -39 -135 -128 -196 -289 -196 -102 0 -160 22 -214 80
-74 81 -76 95 -76 622 0 454 0 462 21 490 31 42 73 62 142 69 l62 7 0 313 0
314 -750 0 -750 0 0 -314z"/>
<path d="M5871 3398 c-32 -75 -51 -188 -50 -300 0 -57 3 -110 7 -118 5 -11 24
-15 75 -15 l67 0 0 124 c0 133 -15 214 -55 305 l-23 51 -21 -47z"/>
<path d="M5818 2888 c-63 -59 -63 -134 -2 -187 82 -73 204 -14 204 98 0 33 -7
49 -33 77 -28 30 -42 37 -83 41 -46 5 -53 3 -86 -29z m146 -58 c17 -32 18 -39
5 -65 -20 -41 -57 -58 -98 -44 -36 13 -51 35 -51 78 0 47 32 73 83 69 37 -3
44 -8 61 -38z"/>
<path d="M5874 2805 c-4 -9 -2 -21 4 -27 15 -15 44 -1 40 19 -4 23 -36 29 -44
8z"/>
<path d="M6066 2735 c-3 -13 -20 -40 -36 -59 l-30 -34 37 -30 c69 -54 164
-111 222 -133 74 -28 193 -51 184 -35 -25 43 -101 132 -145 169 -45 38 -209
147 -222 147 -2 0 -7 -11 -10 -25z"/>
<path d="M5620 2698 c-87 -52 -210 -167 -243 -226 l-18 -32 23 0 c40 0 140 29
203 59 65 31 205 126 205 140 0 4 -10 16 -21 27 -12 10 -28 34 -36 52 -7 17
-17 32 -21 32 -4 0 -46 -23 -92 -52z"/>
<path d="M5859 2610 c0 -3 -8 -80 -18 -172 l-17 -168 79 0 c77 0 79 1 74 23
-3 12 -13 90 -23 173 l-17 151 -38 -1 c-22 0 -39 -3 -40 -6z"/>
<path d="M5816 2198 c-3 -13 -6 -42 -6 -65 l0 -43 96 0 95 0 -7 58 c-3 31 -8
60 -11 65 -2 4 -39 7 -82 7 -73 0 -79 -2 -85 -22z"/>
<path d="M5799 2028 c0 -7 -6 -66 -13 -131 -6 -65 -10 -120 -7 -122 8 -8 250
-6 254 3 3 4 -2 64 -11 135 l-15 127 -104 0 c-75 0 -103 -3 -104 -12z"/>
<path d="M1779 1125 c-10 -17 -3 -83 10 -99 35 -42 82 -5 80 62 l-2 47 -6 -48
c-8 -53 -25 -71 -52 -56 -12 6 -19 24 -21 57 -2 26 -6 43 -9 37z"/>
<path d="M2206 1114 c-25 -24 -20 -71 9 -90 26 -17 75 -13 75 7 0 6 -7 6 -21
-1 -16 -9 -26 -8 -45 5 -46 30 -17 92 38 81 18 -3 27 -2 23 4 -10 16 -62 12
-79 -6z"/>
<path d="M2451 1079 c-22 -53 -28 -87 -10 -56 6 10 22 17 39 17 17 0 33 -7 39
-17 18 -31 12 3 -10 56 -12 28 -25 51 -29 51 -4 0 -17 -23 -29 -51z m43 5 c9
-23 8 -24 -13 -24 -14 0 -18 5 -14 20 6 24 19 26 27 4z"/>
<path d="M2672 1068 l1 -63 6 50 6 50 28 -47 c15 -27 30 -48 32 -48 3 0 4 28
3 63 -1 59 -1 60 -7 17 l-6 -45 -24 43 c-14 23 -28 42 -33 42 -4 0 -7 -28 -6
-62z"/>
<path d="M3070 1070 c0 -59 0 -60 28 -60 40 0 72 26 72 59 0 36 -28 61 -68 61
l-32 0 0 -60z m74 34 c9 -8 16 -21 16 -27 0 -23 -31 -57 -51 -57 -16 0 -19 7
-19 50 0 43 3 50 19 50 11 0 27 -7 35 -16z"/>
<path d="M3327 1112 c-23 -25 -21 -57 5 -82 41 -38 98 -14 98 42 0 51 -69 78
-103 40z m87 -25 c8 -22 6 -31 -10 -48 -18 -17 -24 -18 -47 -8 -34 15 -41 36
-22 66 23 34 66 28 79 -10z"/>
<path d="M3753 1070 c0 -36 2 -50 4 -32 2 17 2 47 0 65 -2 17 -4 3 -4 -33z"/>
<path d="M3912 1123 c13 -3 18 -18 21 -61 l3 -57 2 57 c2 44 6 58 20 61 9 3
-1 5 -23 5 -22 0 -32 -2 -23 -5z"/>
</g>
</svg>
